<svg width="500" height="500" viewBox="0 0 500 500" fill="none" xmlns="http://www.w3.org/2000/svg">
<g opacity="0.15">
<path d="M124.994 18.7491C135.348 18.7491 143.743 10.3545 143.743 0H131.244C131.244 3.44733 128.439 6.24969 124.994 6.24969C121.549 6.24969 118.744 3.44733 118.744 0H106.245C106.245 10.3545 114.639 18.7491 124.994 18.7491Z" fill="#FCEBCF"/>
<path d="M124.994 43.7483C149.155 43.7483 168.742 24.1615 168.742 0H156.242C156.242 8.34717 152.993 16.1944 147.088 22.0966C141.186 27.9989 133.339 31.2513 124.991 31.2513C116.644 31.2513 108.797 28.0014 102.895 22.0966C96.9929 16.1944 93.7405 8.34717 93.7405 0H81.2411C81.2411 24.1615 100.828 43.7483 124.989 43.7483H124.994Z" fill="#FCEBCF"/>
<path d="M231.239 124.995C231.239 135.35 239.634 143.744 249.988 143.744C260.342 143.744 268.737 135.35 268.737 124.995C268.737 114.64 260.342 106.246 249.988 106.246C239.634 106.246 231.239 114.64 231.239 124.995ZM256.235 124.995C256.235 128.44 253.433 131.245 249.986 131.245C246.538 131.245 243.736 128.44 243.736 124.995C243.736 121.55 246.538 118.745 249.986 118.745C253.433 118.745 256.235 121.55 256.235 124.995Z" fill="#FCEBCF"/>
<path d="M206.24 124.995C206.24 149.157 225.827 168.743 249.988 168.743C274.149 168.743 293.736 149.157 293.736 124.995C293.736 100.834 274.149 81.2468 249.988 81.2468C225.827 81.2468 206.24 100.834 206.24 124.995ZM272.084 102.898C277.986 108.801 281.239 116.648 281.239 124.995C281.239 133.342 277.989 141.189 272.084 147.092C266.182 152.994 258.335 156.246 249.988 156.246C241.641 156.246 233.794 152.996 227.891 147.092C221.989 141.189 218.737 133.342 218.737 124.995C218.737 116.648 221.987 108.801 227.891 102.898C233.794 96.9962 241.641 93.7438 249.988 93.7438C258.335 93.7438 266.182 96.9937 272.084 102.898Z" fill="#FCEBCF"/>
<path d="M374.981 18.7491C385.336 18.7491 393.73 10.3545 393.73 0H381.231C381.231 3.44733 378.426 6.24969 374.981 6.24969C371.536 6.24969 368.732 3.44733 368.732 0H356.232C356.232 10.3545 364.627 18.7491 374.981 18.7491Z" fill="#FCEBCF"/>
<path d="M374.981 43.7483C399.143 43.7483 418.729 24.1615 418.729 0H406.23C406.23 8.34717 402.98 16.1944 397.075 22.0966C391.173 27.9989 383.326 31.2513 374.979 31.2513C366.632 31.2513 358.785 28.0014 352.882 22.0966C346.98 16.1944 343.728 8.34717 343.728 0H331.229C331.229 24.1615 350.815 43.7483 374.976 43.7483H374.981Z" fill="#FCEBCF"/>
<path d="M481.226 124.995C481.226 135.35 489.62 143.744 499.975 143.744V131.245C496.527 131.245 493.725 128.44 493.725 124.995C493.725 121.55 496.527 118.745 499.975 118.745V106.246C489.62 106.246 481.226 114.64 481.226 124.995Z" fill="#FCEBCF"/>
<path d="M395.763 104.213C395.8 103.998 395.845 103.783 395.89 103.568C396.793 99.156 397.983 94.7887 399.448 90.5189C400.242 88.1965 401.12 85.8991 402.072 83.6442C403.31 80.7243 404.68 77.8494 406.18 75.0395C407.91 71.7971 409.81 68.6423 411.867 65.5999C415.672 59.9701 420.039 54.6778 424.849 49.8655C429.659 45.0557 434.953 40.6859 440.58 36.886C443.623 34.8311 446.775 32.9287 450.02 31.2013C452.83 29.6963 455.702 28.3264 458.622 27.0914C460.882 26.1365 463.174 25.259 465.497 24.4665C469.764 23.0016 474.131 21.8116 478.546 20.9067C478.761 20.8642 478.976 20.8192 479.194 20.7767C483.471 19.9292 487.823 19.3442 492.205 19.0292C494.785 18.8417 497.378 18.7467 499.972 18.7467V6.24975C497.82 6.24975 495.68 6.30725 493.553 6.41974C493.665 4.29483 493.723 2.15491 493.723 0H481.223C481.223 2.5949 481.128 5.18729 480.941 7.76719C476.586 8.46716 472.311 9.40462 468.132 10.5671C468.524 7.09722 468.722 3.57236 468.722 0H456.222C456.222 5.12729 455.755 10.1821 454.825 15.1344C449.675 17.2518 444.705 19.7217 439.951 22.5141C442.395 15.4619 443.723 7.88468 443.723 0H431.221C431.221 7.5997 429.736 14.9644 426.806 21.8891C423.974 28.5864 419.916 34.6036 414.747 39.7734C409.58 44.9407 403.562 49.0005 396.865 51.8304C389.941 54.7628 382.573 56.2453 374.976 56.2453C367.379 56.2453 360.012 54.7603 353.087 51.8304C346.39 48.998 340.373 44.9407 335.206 39.7734C330.036 34.6036 325.979 28.5864 323.146 21.8891C320.214 14.9644 318.732 7.5997 318.732 0H306.23C306.23 7.88468 307.557 15.4619 310.002 22.5141C316.879 42.3708 332.603 58.0952 352.46 64.9724C359.515 67.4198 367.089 68.7473 374.976 68.7473C382.863 68.7473 390.438 67.4198 397.493 64.9724C394.7 69.7272 392.23 74.697 390.11 79.8468C385.158 80.7793 380.103 81.2468 374.976 81.2468C369.849 81.2468 364.794 80.7793 359.842 79.8468C354.345 78.8143 348.978 77.2094 343.775 75.0395C343.635 74.982 343.495 74.9245 343.355 74.8645C338.543 72.8321 333.901 70.3122 329.559 67.3773C325.254 64.4674 321.206 61.1276 317.527 57.4477C313.847 53.7679 310.507 49.718 307.6 45.4157C304.665 41.0734 302.145 36.431 300.11 31.6187C300.05 31.4812 299.993 31.3437 299.935 31.2038C297.768 26.0015 296.163 20.6317 295.125 15.1344C294.195 10.1821 293.728 5.12729 293.728 0H281.228C281.228 3.57486 281.428 7.09722 281.818 10.5671C282.351 15.3169 283.236 19.9592 284.453 24.469C285.938 29.9838 287.916 35.2961 290.335 40.3584C299.578 59.7101 315.262 75.3945 334.616 84.6391C339.678 87.059 344.993 89.0364 350.507 90.5214C355.015 91.7388 359.657 92.6238 364.407 93.1563C367.874 93.5488 371.401 93.7463 374.974 93.7463C378.546 93.7463 382.073 93.5463 385.541 93.1563C384.378 97.3361 383.441 101.611 382.741 105.966C380.158 106.156 377.566 106.248 374.974 106.248C372.381 106.248 369.789 106.156 367.207 105.966C362.824 105.651 358.47 105.066 354.192 104.216C353.977 104.178 353.762 104.133 353.547 104.088C349.135 103.186 344.768 101.996 340.498 100.531C338.176 99.736 335.878 98.8585 333.623 97.9061C330.703 96.6686 327.829 95.2987 325.019 93.7987C321.776 92.0688 318.622 90.1689 315.579 88.1115C309.95 84.3066 304.657 79.9393 299.845 75.1295C295.035 70.3197 290.665 65.0249 286.866 59.3976C284.811 56.3552 282.908 53.2029 281.181 49.958C279.676 47.1456 278.306 44.2732 277.071 41.3533C276.116 39.0934 275.239 36.801 274.446 34.4786C272.981 30.2088 271.791 25.8415 270.886 21.4291C270.844 21.2142 270.799 20.9992 270.756 20.7817C269.909 16.5043 269.324 12.152 269.009 7.76969C268.822 5.18979 268.727 2.5974 268.727 0.0024999H256.227C256.227 2.15491 256.285 4.29483 256.397 6.42224C254.272 6.30975 252.132 6.25225 249.978 6.25225C247.823 6.25225 245.685 6.30975 243.558 6.42224C243.67 4.29733 243.728 2.15741 243.728 0.0024999H231.228C231.228 2.5974 231.133 5.18979 230.946 7.76969C226.591 8.46966 222.316 9.40712 218.137 10.5696C218.529 7.09972 218.727 3.57486 218.727 0.0024999H206.227C206.227 5.12979 205.76 10.1846 204.83 15.1369C199.68 17.2543 194.71 19.7242 189.955 22.5166C192.4 15.4644 193.728 7.88718 193.728 0.0024999H181.226C181.226 7.6022 179.741 14.9669 176.811 21.8916C173.979 28.5889 169.921 34.6061 164.752 39.7759C159.585 44.9432 153.567 49.003 146.87 51.8329C139.946 54.7653 132.578 56.2478 124.981 56.2478C117.384 56.2478 110.017 54.7628 103.092 51.8329C96.3952 49.0005 90.378 44.9432 85.2107 39.7759C80.041 34.6061 75.9837 28.5889 73.1513 21.8916C70.219 14.9669 68.7366 7.6022 68.7366 0.0024999H56.2347C56.2347 7.88718 57.5621 15.4644 60.007 22.5166C66.8842 42.3733 82.6084 58.0977 102.465 64.9749C109.52 67.4223 117.094 68.7498 124.981 68.7498C132.868 68.7498 140.443 67.4223 147.498 64.9749C144.705 69.7297 142.235 74.6995 140.115 79.8493C135.163 80.7818 130.108 81.2493 124.981 81.2493C119.854 81.2493 114.799 80.7818 109.847 79.8493C104.35 78.8168 98.9826 77.2119 93.7803 75.042C93.6403 74.9845 93.5003 74.927 93.3603 74.867C88.5481 72.8346 83.9058 70.3147 79.5635 67.3798C75.2587 64.4699 71.2114 61.1301 67.5316 57.4502C63.8518 53.7703 60.512 49.7205 57.6046 45.4182C54.6698 41.0759 52.1499 36.4335 50.115 31.6212C50.055 31.4837 49.9975 31.3462 49.94 31.2063C47.7726 26.004 46.1677 20.6342 45.1302 15.1369C44.2003 10.1846 43.7328 5.12979 43.7328 0.0024999H31.2334C31.2334 3.57736 31.4334 7.09972 31.8234 10.5696C32.3559 15.3194 33.2408 19.9617 34.4583 24.4715C35.9432 29.9863 37.9206 35.2986 40.3405 40.3609C49.5825 59.7126 65.2667 75.397 84.6208 84.6416C89.683 87.0615 94.9978 89.0389 100.512 90.5239C105.02 91.7413 109.662 92.6263 114.412 93.1588C117.879 93.5513 121.406 93.7488 124.979 93.7488C128.551 93.7488 132.078 93.5488 135.546 93.1588C134.383 97.3386 133.446 101.613 132.746 105.968C130.163 106.158 127.571 106.251 124.979 106.251C122.386 106.251 119.794 106.158 117.212 105.968C112.829 105.653 108.475 105.068 104.197 104.218C103.982 104.181 103.767 104.136 103.552 104.091C99.14 103.188 94.7728 101.998 90.503 100.533C88.1806 99.7385 85.8832 98.861 83.6283 97.9086C80.7085 96.6711 77.8336 95.3012 75.0237 93.8012C71.7814 92.0713 68.6266 90.1714 65.5842 88.114C59.9545 84.3091 54.6623 79.9418 49.85 75.132C45.0402 70.3222 40.6705 65.0274 36.8707 59.4001C34.8158 56.3577 32.9134 53.2054 31.1859 49.9605C29.681 47.1481 28.3111 44.2757 27.0761 41.3558C26.1212 39.0959 25.2437 36.8035 24.4513 34.4811C22.9863 30.2113 21.7964 25.844 20.8915 21.4316C20.849 21.2167 20.804 21.0017 20.7615 20.7842C19.914 16.5068 19.329 12.1545 19.014 7.77219C18.8266 5.19229 18.7316 2.5999 18.7316 0.0049998H6.24969C6.24969 2.15741 6.30718 4.29733 6.41968 6.42474C4.29479 6.31225 2.15489 6.25475 0 6.25475V18.7542C2.59487 18.7542 5.18724 18.8492 7.76711 19.0367C8.46708 23.3916 9.40453 27.6664 10.567 31.8462C7.09715 31.4537 3.57232 31.2562 0 31.2562V43.7557C5.12724 43.7557 10.182 44.2232 15.1342 45.1532C17.2516 50.303 19.7215 55.2728 22.5139 60.0276C15.4617 57.5827 7.88461 56.2552 0 56.2552V68.7573C7.59962 68.7573 14.9643 70.2422 21.8889 73.1721C28.5861 76.0045 34.6033 80.0618 39.773 85.2316C44.9403 90.3989 49.0001 96.4161 51.8299 103.113C54.7623 110.038 56.2447 117.405 56.2447 125.003C56.2447 132.6 54.7598 139.967 51.8299 146.892C48.9976 153.589 44.9403 159.606 39.773 164.773C34.6033 169.943 28.5861 174.001 21.8889 176.833C14.9643 179.765 7.59962 181.248 0 181.248V193.75C7.88461 193.75 15.4617 192.422 22.5139 189.977C42.3704 183.1 58.0946 167.376 64.9717 147.519C67.4191 140.464 68.7466 132.89 68.7466 125.003C68.7466 117.115 67.4191 109.541 64.9717 102.486C69.7265 105.278 74.6963 107.748 79.846 109.868C80.7785 114.82 81.2459 119.875 81.2459 125.003C81.2459 130.13 80.7785 135.185 79.846 140.137C78.8136 145.634 77.2086 151.004 75.0388 156.204C74.9813 156.344 74.9238 156.484 74.8638 156.624C72.8314 161.436 70.3115 166.078 67.3766 170.421C64.4693 174.726 61.1269 178.773 57.4471 182.453C53.7673 186.133 49.7175 189.472 45.4152 192.38C41.0729 195.315 36.4307 197.835 31.6184 199.87C31.4809 199.93 31.3434 199.987 31.2034 200.045C26.0012 202.212 20.6315 203.817 15.1342 204.854C10.182 205.784 5.12724 206.252 0 206.252V218.751C3.57482 218.751 7.09715 218.551 10.567 218.161C15.3167 217.629 19.9615 216.744 24.4688 215.526C29.9835 214.041 35.2957 212.064 40.358 209.644C59.7095 200.402 75.3937 184.718 84.6383 165.363C87.0581 160.301 89.0355 154.986 90.5205 149.472C91.7379 144.964 92.6229 140.322 93.1553 135.572C93.5478 132.105 93.7453 128.577 93.7453 125.005C93.7453 121.433 93.5453 117.905 93.1553 114.438C97.3351 115.6 101.61 116.538 105.965 117.238C106.155 119.82 106.247 122.413 106.247 125.005C106.247 127.597 106.155 130.19 105.965 132.772C105.65 137.155 105.065 141.509 104.215 145.787C104.177 146.002 104.132 146.217 104.087 146.432C103.185 150.844 101.995 155.211 100.53 159.481C99.735 161.804 98.8576 164.101 97.9051 166.356C96.6677 169.276 95.2977 172.151 93.7978 174.961C92.0679 178.203 90.168 181.358 88.1106 184.4C84.3058 190.03 79.9385 195.322 75.1287 200.134C70.319 204.944 65.0242 209.314 59.397 213.114C56.3547 215.169 53.2023 217.071 49.9575 218.799C47.1476 220.304 44.2753 221.674 41.3554 222.909C39.0955 223.864 36.8032 224.741 34.4808 225.533C30.2135 226.998 25.8462 228.188 21.4314 229.093C21.2164 229.136 21.0014 229.181 20.784 229.223C16.5067 230.071 12.1544 230.656 7.77211 230.971C5.19224 231.158 2.59987 231.253 0.00499975 231.253V243.753C2.15739 243.753 4.29729 243.695 6.42468 243.583C6.31218 245.708 6.25469 247.848 6.25469 250.002C6.25469 252.157 6.31218 254.295 6.42468 256.422C4.29979 256.31 2.15989 256.252 0.00499975 256.252V268.752C2.59987 268.752 5.19224 268.847 7.77211 269.034C8.47208 273.389 9.40953 277.664 10.572 281.844C7.10215 281.451 3.57732 281.254 0.00499975 281.254V293.753C5.13224 293.753 10.187 294.221 15.1392 295.151C17.2566 300.3 19.7265 305.27 22.5189 310.025C15.4667 307.58 7.88961 306.253 0.00499975 306.253V318.755C7.60462 318.755 14.9693 320.24 21.8939 323.17C28.5911 326.002 34.6083 330.059 39.778 335.229C44.9453 340.396 49.0051 346.414 51.8349 353.111C54.7673 360.036 56.2497 367.403 56.2497 375C56.2497 382.597 54.7648 389.964 51.8349 396.889C49.0026 403.586 44.9453 409.604 39.778 414.771C34.6083 419.941 28.5911 423.998 21.8939 426.83C14.9693 429.763 7.60462 431.245 0.00499975 431.245V443.747C7.88961 443.747 15.4667 442.42 22.5189 439.975C42.3754 433.098 58.0996 417.373 64.9768 397.517C67.4241 390.462 68.7516 382.887 68.7516 375C68.7516 367.113 67.4241 359.538 64.9768 352.483C69.7315 355.276 74.7013 357.746 79.851 359.866C80.7835 364.818 81.2509 369.873 81.2509 375C81.2509 380.127 80.7835 385.182 79.851 390.134C78.8186 395.632 77.2136 401.001 75.0437 406.201C74.9863 406.341 74.9288 406.481 74.8688 406.621C72.8364 411.434 70.3165 416.076 67.3816 420.418C64.4743 424.723 61.1319 428.77 57.4521 432.45C53.7723 436.13 49.7225 439.47 45.4202 442.377C41.0779 445.312 36.4357 447.832 31.6234 449.867C31.4859 449.927 31.3484 449.984 31.2084 450.042C26.0062 452.209 20.6365 453.814 15.1392 454.852C10.187 455.782 5.13224 456.249 0.00499975 456.249V468.749C3.57982 468.749 7.10215 468.549 10.572 468.159C15.3217 467.626 19.9665 466.741 24.4738 465.524C29.9885 464.039 35.3007 462.062 40.363 459.642C59.7145 450.399 75.3987 434.715 84.6433 415.361C87.0631 410.299 89.0405 404.984 90.5255 399.469C91.7429 394.962 92.6279 390.319 93.1603 385.57C93.5528 382.102 93.7503 378.575 93.7503 375.002C93.7503 371.43 93.5503 367.903 93.1603 364.435C97.3401 365.598 101.615 366.535 105.97 367.235C106.16 369.818 106.252 372.41 106.252 375.002C106.252 377.595 106.16 380.187 105.97 382.77C105.655 387.152 105.07 391.507 104.22 395.784C104.182 395.999 104.137 396.214 104.092 396.429C103.19 400.841 102 405.209 100.535 409.479C99.74 411.801 98.8626 414.098 97.9101 416.353C96.6727 419.273 95.3027 422.148 93.8028 424.958C92.0729 428.2 90.173 431.355 88.1156 434.398C84.3108 440.027 79.9435 445.32 75.1337 450.132C70.324 454.942 65.0292 459.312 59.402 463.111C56.3597 465.166 53.2073 467.069 49.9625 468.796C47.1526 470.301 44.2803 471.671 41.3604 472.906C39.1005 473.861 36.8082 474.738 34.4858 475.531C30.2185 476.996 25.8512 478.186 21.4364 479.091C21.2214 479.133 21.0065 479.178 20.789 479.221C16.5117 480.068 12.1594 480.653 7.77711 480.968C5.19724 481.156 2.60487 481.251 0.0099995 481.251V493.75C2.16239 493.75 4.30228 493.693 6.42968 493.58C6.31718 495.705 6.25969 497.845 6.25969 500H18.7591C18.7591 497.405 18.8541 494.813 19.0415 492.233C23.3963 491.533 27.6711 490.595 31.8509 489.433C31.4584 492.903 31.2609 496.428 31.2609 500H43.7603C43.7603 494.873 44.2278 489.818 45.1577 484.866C50.3075 482.748 55.2772 480.278 60.032 477.486C57.5871 484.538 56.2597 492.115 56.2597 500H68.7616C68.7616 492.4 70.2465 485.036 73.1763 478.111C76.0087 471.414 80.066 465.396 85.2357 460.227C90.403 455.059 96.4202 450.999 103.117 448.17C110.042 445.237 117.409 443.755 125.006 443.755C132.603 443.755 139.97 445.24 146.895 448.17C153.592 451.002 159.61 455.059 164.777 460.227C169.947 465.396 174.004 471.414 176.836 478.111C179.769 485.036 181.251 492.4 181.251 500H193.753C193.753 492.115 192.425 484.538 189.981 477.486C183.103 457.629 167.379 441.905 147.523 435.028C140.468 432.58 132.893 431.253 125.006 431.253C117.119 431.253 109.545 432.58 102.49 435.028C105.282 430.273 107.752 425.303 109.872 420.153C114.824 419.221 119.879 418.753 125.006 418.753C130.133 418.753 135.188 419.221 140.14 420.153C145.638 421.186 151.005 422.791 156.207 424.961C156.347 425.018 156.487 425.075 156.627 425.135C161.439 427.168 166.082 429.688 170.424 432.623C174.729 435.533 178.776 438.872 182.456 442.552C186.136 446.232 189.476 450.282 192.383 454.584C195.318 458.927 197.838 463.569 199.873 468.381C199.933 468.519 199.99 468.656 200.047 468.796C202.215 473.999 203.82 479.368 204.857 484.866C205.787 489.818 206.255 494.873 206.255 500H218.754C218.754 496.425 218.554 492.903 218.164 489.433C217.632 484.683 216.747 480.041 215.529 475.531C214.044 470.016 212.067 464.704 209.647 459.642C200.405 440.29 184.721 424.606 165.367 415.361C160.304 412.941 154.99 410.964 149.475 409.479C144.968 408.261 140.325 407.376 135.576 406.844C132.108 406.451 128.581 406.254 125.009 406.254C121.436 406.254 117.909 406.454 114.442 406.844C115.604 402.664 116.542 398.389 117.242 394.034C119.824 393.844 122.416 393.752 125.009 393.752C127.601 393.752 130.193 393.844 132.776 394.034C137.158 394.349 141.513 394.934 145.79 395.784C146.005 395.822 146.22 395.867 146.435 395.912C150.847 396.814 155.215 398.004 159.485 399.469C161.807 400.264 164.104 401.141 166.359 402.094C169.279 403.331 172.154 404.701 174.964 406.201C178.206 407.931 181.361 409.831 184.403 411.889C190.033 415.693 195.325 420.061 200.137 424.871C204.947 429.68 209.317 434.975 213.117 440.602C215.172 443.645 217.074 446.797 218.802 450.042C220.306 452.854 221.676 455.727 222.911 458.647C223.866 460.907 224.744 463.199 225.536 465.521C227.001 469.791 228.191 474.159 229.096 478.571C229.139 478.786 229.184 479.001 229.226 479.218C230.073 483.496 230.658 487.848 230.973 492.23C231.161 494.81 231.256 497.403 231.256 499.997H243.755C243.755 497.845 243.698 495.705 243.585 493.578C245.71 493.69 247.85 493.748 250.005 493.748C252.16 493.748 254.297 493.69 256.425 493.578C256.312 495.703 256.255 497.843 256.255 499.997H268.754C268.754 497.403 268.849 494.81 269.037 492.23C273.391 491.53 277.666 490.593 281.846 489.43C281.453 492.9 281.256 496.425 281.256 499.997H293.755C293.755 494.87 294.223 489.815 295.153 484.863C300.302 482.746 305.272 480.276 310.027 477.483C307.582 484.536 306.255 492.113 306.255 499.997H318.757C318.757 492.398 320.241 485.033 323.171 478.108C326.004 471.411 330.061 465.394 335.231 460.224C340.398 455.057 346.415 450.997 353.112 448.167C360.037 445.235 367.404 443.752 375.001 443.752C382.598 443.752 389.966 445.237 396.89 448.167C403.587 450.999 409.605 455.057 414.772 460.224C419.942 465.394 423.999 471.411 426.831 478.108C429.764 485.033 431.246 492.398 431.246 499.997H443.748C443.748 492.113 442.42 484.536 439.975 477.483C433.098 457.627 417.374 441.902 397.518 435.025C390.463 432.578 382.888 431.25 375.001 431.25C367.114 431.25 359.54 432.578 352.485 435.025C355.277 430.27 357.747 425.301 359.867 420.151C364.819 419.218 369.874 418.751 375.001 418.751C380.128 418.751 385.183 419.218 390.135 420.151C395.633 421.183 401 422.788 406.202 424.958C406.342 425.016 406.482 425.073 406.622 425.133C411.434 427.165 416.077 429.685 420.419 432.62C424.724 435.53 428.771 438.87 432.451 442.55C436.131 446.23 439.471 450.279 442.378 454.582C445.313 458.924 447.833 463.566 449.868 468.379C449.928 468.516 449.985 468.654 450.042 468.794C452.21 473.996 453.815 479.366 454.852 484.863C455.782 489.815 456.25 494.87 456.25 499.997H468.749C468.749 496.423 468.549 492.9 468.159 489.43C467.627 484.681 466.742 480.038 465.524 475.528C464.039 470.014 462.062 464.701 459.642 459.639C450.4 440.287 434.716 424.603 415.362 415.358C410.299 412.938 404.985 410.961 399.47 409.476C394.963 408.259 390.32 407.374 385.571 406.841C382.103 406.449 378.576 406.251 375.004 406.251C371.431 406.251 367.904 406.451 364.437 406.841C365.599 402.661 366.537 398.387 367.237 394.032C369.819 393.842 372.411 393.749 375.004 393.749C377.596 393.749 380.188 393.842 382.771 394.032C387.153 394.347 391.508 394.932 395.785 395.782C396 395.819 396.215 395.864 396.43 395.909C400.842 396.812 405.21 398.002 409.48 399.467C411.802 400.262 414.099 401.139 416.354 402.091C419.274 403.329 422.149 404.699 424.959 406.199C428.201 407.929 431.356 409.829 434.398 411.886C440.028 415.691 445.32 420.058 450.132 424.868C454.942 429.678 459.312 434.973 463.112 440.6C465.167 443.642 467.069 446.795 468.797 450.039C470.301 452.852 471.671 455.724 472.906 458.644C473.861 460.904 474.739 463.196 475.531 465.519C476.996 469.789 478.186 474.156 479.091 478.568C479.134 478.783 479.179 478.998 479.221 479.216C480.068 483.493 480.653 487.845 480.968 492.228C481.156 494.808 481.251 497.4 481.251 499.995H493.75C493.75 497.843 493.693 495.703 493.58 493.575C495.705 493.688 497.845 493.745 500 493.745V481.246C497.405 481.246 494.813 481.151 492.233 480.963C491.533 476.608 490.595 472.334 489.433 468.154C492.903 468.546 496.428 468.744 500 468.744V456.244C494.873 456.244 489.818 455.777 484.866 454.847C482.748 449.697 480.278 444.727 477.486 439.972C484.538 442.417 492.115 443.745 500 443.745V431.243C492.4 431.243 485.036 429.758 478.111 426.828C471.414 423.996 465.397 419.938 460.227 414.768C455.06 409.601 451 403.584 448.17 396.887C445.238 389.962 443.755 382.595 443.755 374.998C443.755 367.4 445.24 360.033 448.17 353.108C451.002 346.411 455.06 340.394 460.227 335.227C465.397 330.057 471.414 325.999 478.111 323.167C485.036 320.235 492.4 318.752 500 318.752V306.25C492.115 306.25 484.538 307.578 477.486 310.023C457.63 316.9 441.905 332.624 435.028 352.481C432.581 359.536 431.253 367.11 431.253 374.998C431.253 382.885 432.581 390.459 435.028 397.514C430.273 394.722 425.304 392.252 420.154 390.132C419.222 385.18 418.754 380.125 418.754 374.998C418.754 369.87 419.222 364.815 420.154 359.863C421.186 354.366 422.791 348.999 424.961 343.796C425.019 343.656 425.076 343.516 425.136 343.376C427.169 338.564 429.689 333.922 432.623 329.579C435.533 325.274 438.873 321.227 442.553 317.547C446.233 313.867 450.282 310.528 454.585 307.62C458.927 304.685 463.569 302.165 468.382 300.13C468.519 300.07 468.657 300.013 468.797 299.956C473.999 297.788 479.369 296.183 484.866 295.146C489.818 294.216 494.873 293.748 500 293.748V281.249C496.425 281.249 492.903 281.449 489.433 281.839C484.683 282.371 480.041 283.256 475.531 284.474C470.016 285.959 464.704 287.936 459.642 290.356C440.29 299.598 424.606 315.282 415.362 334.637C412.942 339.699 410.964 345.014 409.48 350.528C408.262 355.036 407.377 359.678 406.845 364.428C406.452 367.895 406.255 371.423 406.255 374.995C406.255 378.567 406.455 382.095 406.845 385.562C402.665 384.4 398.39 383.462 394.035 382.762C393.845 380.18 393.753 377.587 393.753 374.995C393.753 372.403 393.845 369.81 394.035 367.228C394.35 362.845 394.935 358.491 395.785 354.213C395.823 353.998 395.868 353.783 395.913 353.568C396.815 349.156 398.005 344.789 399.47 340.519C400.265 338.196 401.142 335.899 402.095 333.644C403.332 330.724 404.702 327.849 406.202 325.039C407.932 321.797 409.832 318.642 411.889 315.6C415.694 309.97 420.061 304.678 424.871 299.866C429.681 295.056 434.976 290.686 440.603 286.886C443.645 284.831 446.798 282.929 450.042 281.201C452.852 279.696 455.725 278.326 458.645 277.091C460.904 276.136 463.197 275.259 465.519 274.467C469.787 273.002 474.154 271.812 478.569 270.907C478.784 270.864 478.999 270.819 479.216 270.777C483.493 269.929 487.846 269.344 492.228 269.029C494.808 268.842 497.4 268.747 499.995 268.747V256.247C497.843 256.247 495.703 256.305 493.575 256.417C493.688 254.292 493.745 252.152 493.745 249.998C493.745 247.843 493.688 245.705 493.575 243.578C495.7 243.69 497.84 243.748 499.995 243.748V231.248C497.4 231.248 494.808 231.153 492.228 230.966C491.528 226.611 490.59 222.336 489.428 218.156C492.898 218.549 496.423 218.746 499.995 218.746V206.247C494.868 206.247 489.813 205.779 484.861 204.849C482.743 199.7 480.273 194.73 477.481 189.975C484.533 192.42 492.11 193.747 499.995 193.747V181.245C492.395 181.245 485.031 179.76 478.106 176.83C471.409 173.998 465.392 169.941 460.222 164.771C455.055 159.604 450.995 153.586 448.165 146.889C445.233 139.964 443.75 132.597 443.75 125C443.75 117.403 445.235 110.036 448.165 103.111C450.997 96.4136 455.055 90.3964 460.222 85.2291C465.392 80.0593 471.409 76.002 478.106 73.1696C485.031 70.2372 492.395 68.7547 499.995 68.7547V56.2528C492.11 56.2528 484.533 57.5802 477.481 60.0251C457.625 66.9023 441.9 82.6267 435.023 102.483C432.576 109.538 431.248 117.113 431.248 125C431.248 132.887 432.576 140.462 435.023 147.517C430.268 144.724 425.299 142.254 420.149 140.134C419.217 135.182 418.749 130.127 418.749 125C418.749 119.873 419.217 114.818 420.149 109.866C421.181 104.368 422.786 99.001 424.956 93.7987C425.014 93.6588 425.071 93.5188 425.131 93.3788C427.164 88.5665 429.684 83.9241 432.618 79.5818C435.528 75.277 438.868 71.2296 442.548 67.5498C446.228 63.8699 450.277 60.5301 454.58 57.6227C458.922 54.6878 463.564 52.1679 468.377 50.133C468.514 50.073 468.652 50.0155 468.792 49.958C473.994 47.7906 479.364 46.1857 484.861 45.1482C489.813 44.2182 494.868 43.7507 499.995 43.7507V31.2513C496.42 31.2513 492.898 31.4512 489.428 31.8412C484.678 32.3737 480.036 33.2587 475.526 34.4761C470.011 35.9611 464.699 37.9385 459.637 40.3584C440.285 49.6005 424.601 65.2849 415.357 84.6391C412.937 89.7014 410.959 95.0162 409.475 100.531C408.257 105.038 407.372 109.681 406.84 114.43C406.447 117.898 406.25 121.425 406.25 124.998C406.25 128.57 406.45 132.097 406.84 135.565C402.66 134.402 398.385 133.465 394.03 132.765C393.84 130.182 393.748 127.59 393.748 124.998C393.748 122.405 393.84 119.813 394.03 117.23C394.345 112.848 394.93 108.493 395.78 104.216L395.763 104.213ZM355.95 117.228C356.14 119.81 356.232 122.403 356.232 124.995C356.232 127.587 356.14 130.18 355.95 132.762C355.635 137.145 355.05 141.499 354.2 145.777C354.162 145.992 354.117 146.207 354.072 146.422C353.17 150.834 351.98 155.201 350.515 159.471C349.72 161.794 348.843 164.091 347.89 166.346C346.653 169.266 345.283 172.141 343.783 174.951C342.053 178.193 340.153 181.348 338.096 184.39C334.291 190.02 329.924 195.312 325.114 200.125C320.304 204.934 315.009 209.304 309.382 213.104C306.34 215.159 303.187 217.061 299.942 218.789C297.133 220.294 294.26 221.664 291.34 222.899C289.081 223.854 286.788 224.731 284.466 225.523C280.198 226.988 275.831 228.178 271.416 229.083C271.201 229.126 270.986 229.171 270.769 229.213C266.492 230.061 262.139 230.646 257.757 230.961C255.177 231.148 252.585 231.243 249.99 231.243C247.395 231.243 244.803 231.148 242.223 230.961C241.523 226.606 240.585 222.331 239.423 218.151C242.893 218.544 246.418 218.741 249.99 218.741C253.562 218.741 257.087 218.541 260.557 218.151C265.307 217.619 269.949 216.734 274.459 215.516C279.974 214.031 285.286 212.054 290.348 209.634C309.7 200.392 325.384 184.708 334.628 165.353C337.048 160.291 339.026 154.976 340.51 149.462C341.728 144.954 342.613 140.312 343.145 135.562C343.538 132.095 343.735 128.567 343.735 124.995C343.735 121.423 343.535 117.895 343.145 114.428C347.325 115.59 351.6 116.528 355.955 117.228H355.95ZM281.826 260.557C282.358 265.307 283.243 269.949 284.461 274.459C285.946 279.974 287.923 285.286 290.343 290.348C299.585 309.7 315.269 325.384 334.623 334.629C339.686 337.049 345 339.026 350.515 340.511C355.022 341.729 359.665 342.614 364.414 343.146C367.882 343.539 371.409 343.736 374.981 343.736C378.554 343.736 382.081 343.536 385.548 343.146C384.386 347.326 383.448 351.601 382.748 355.956C380.166 356.146 377.574 356.238 374.981 356.238C372.389 356.238 369.797 356.146 367.214 355.956C362.832 355.641 358.477 355.056 354.2 354.206C353.985 354.168 353.77 354.123 353.555 354.078C349.143 353.176 344.775 351.986 340.505 350.521C338.183 349.726 335.886 348.849 333.631 347.896C330.711 346.659 327.836 345.289 325.026 343.789C321.784 342.059 318.629 340.159 315.587 338.101C309.957 334.297 304.665 329.929 299.852 325.12C295.043 320.31 290.673 315.015 286.873 309.388C284.818 306.345 282.916 303.193 281.188 299.948C279.684 297.136 278.314 294.263 277.079 291.343C276.124 289.083 275.246 286.791 274.454 284.469C272.989 280.199 271.799 275.831 270.894 271.419C270.851 271.204 270.806 270.989 270.764 270.772C269.916 266.494 269.332 262.142 269.017 257.76C268.829 255.18 268.734 252.587 268.734 249.993C268.734 247.398 268.829 244.805 269.017 242.225C273.371 241.525 277.646 240.588 281.826 239.425C281.433 242.895 281.236 246.42 281.236 249.993C281.236 253.565 281.436 257.09 281.826 260.56V260.557ZM256.405 256.41C254.28 256.297 252.14 256.24 249.985 256.24C247.83 256.24 245.693 256.297 243.565 256.41C243.678 254.285 243.735 252.145 243.735 249.99C243.735 247.835 243.678 245.698 243.565 243.57C245.69 243.683 247.83 243.74 249.985 243.74C252.14 243.74 254.277 243.683 256.405 243.57C256.292 245.695 256.235 247.835 256.235 249.99C256.235 252.145 256.292 254.282 256.405 256.41ZM218.737 249.99C218.737 246.415 218.537 242.893 218.147 239.423C217.614 234.673 216.729 230.031 215.512 225.521C214.027 220.006 212.049 214.694 209.63 209.632C200.387 190.28 184.703 174.596 165.349 165.351C160.287 162.931 154.972 160.954 149.458 159.469C144.95 158.251 140.308 157.366 135.558 156.834C132.091 156.441 128.564 156.244 124.991 156.244C121.419 156.244 117.892 156.444 114.424 156.834C115.587 152.654 116.524 148.379 117.224 144.024C119.807 143.834 122.399 143.742 124.991 143.742C127.584 143.742 130.176 143.834 132.758 144.024C137.141 144.339 141.495 144.924 145.773 145.774C145.988 145.812 146.203 145.857 146.418 145.902C150.83 146.804 155.197 147.994 159.467 149.459C161.789 150.254 164.087 151.131 166.342 152.084C169.262 153.321 172.136 154.691 174.946 156.191C178.189 157.921 181.343 159.821 184.386 161.879C190.016 165.683 195.308 170.051 200.12 174.86C204.93 179.67 209.3 184.965 213.099 190.592C215.154 193.635 217.057 196.787 218.784 200.032C220.289 202.844 221.659 205.717 222.894 208.637C223.849 210.897 224.726 213.189 225.519 215.511C226.984 219.781 228.174 224.149 229.079 228.561C229.121 228.776 229.166 228.991 229.209 229.208C230.056 233.486 230.641 237.838 230.956 242.22C231.143 244.8 231.238 247.393 231.238 249.987C231.238 252.582 231.143 255.175 230.956 257.755C226.601 258.455 222.326 259.392 218.147 260.555C218.539 257.085 218.737 253.56 218.737 249.987V249.99ZM329.831 109.861C330.763 114.813 331.231 119.868 331.231 124.995C331.231 130.122 330.763 135.177 329.831 140.129C328.799 145.627 327.194 150.996 325.024 156.196C324.966 156.336 324.909 156.476 324.849 156.616C322.816 161.429 320.296 166.071 317.362 170.413C314.452 174.718 311.112 178.765 307.432 182.445C303.752 186.125 299.703 189.465 295.4 192.372C291.058 195.307 286.416 197.827 281.603 199.862C281.466 199.922 281.328 199.979 281.188 200.037C275.986 202.204 270.616 203.809 265.119 204.847C260.167 205.777 255.112 206.244 249.985 206.244C244.858 206.244 239.803 205.777 234.851 204.847C232.733 199.697 230.263 194.727 227.471 189.972C234.523 192.417 242.1 193.745 249.985 193.745C257.87 193.745 265.447 192.417 272.499 189.972C292.355 183.095 308.08 167.371 314.957 147.514C317.404 140.459 318.732 132.885 318.732 124.998C318.732 117.11 317.404 109.536 314.957 102.481C319.712 105.273 324.681 107.743 329.831 109.863V109.861ZM289.758 85.2216C294.925 90.3889 298.985 96.4061 301.815 103.103C304.747 110.028 306.23 117.395 306.23 124.992C306.23 132.59 304.745 139.957 301.815 146.882C298.983 153.579 294.925 159.596 289.758 164.763C284.588 169.933 278.571 173.991 271.874 176.823C264.949 179.755 257.585 181.238 249.985 181.238C242.385 181.238 235.021 179.753 228.096 176.823C221.399 173.991 215.382 169.933 210.212 164.763C205.045 159.596 200.985 153.579 198.155 146.882C195.223 139.957 193.74 132.59 193.74 124.992C193.74 117.395 195.225 110.028 198.155 103.103C200.987 96.4061 205.045 90.3889 210.212 85.2216C215.382 80.0518 221.399 75.9945 228.096 73.1621C235.021 70.2297 242.385 68.7473 249.985 68.7473C257.585 68.7473 264.949 70.2322 271.874 73.1621C278.571 75.9945 284.588 80.0518 289.758 85.2216ZM272.499 60.0176C265.447 57.5727 257.87 56.2453 249.985 56.2453C242.1 56.2453 234.523 57.5727 227.471 60.0176C207.615 66.8948 191.89 82.6192 185.013 102.476C182.566 109.531 181.238 117.105 181.238 124.992C181.238 132.88 182.566 140.454 185.013 147.509C180.258 144.717 175.289 142.247 170.139 140.127C169.207 135.175 168.739 130.12 168.739 124.992C168.739 119.865 169.207 114.81 170.139 109.858C171.171 104.361 172.776 98.9935 174.946 93.7912C175.004 93.6513 175.061 93.5113 175.121 93.3713C177.154 88.559 179.674 83.9166 182.608 79.5743C185.516 75.2695 188.858 71.2221 192.538 67.5423C196.218 63.8624 200.267 60.5226 204.57 57.6152C208.912 54.6803 213.554 52.1604 218.367 50.1255C218.504 50.0655 218.642 50.008 218.782 49.9505C223.984 47.7831 229.354 46.1782 234.851 45.1407C239.803 44.2107 244.858 43.7432 249.985 43.7432C255.112 43.7432 260.167 44.2107 265.119 45.1407C267.237 50.2905 269.707 55.2603 272.499 60.0151V60.0176ZM144.023 117.225C144.338 112.843 144.923 108.488 145.773 104.211C145.81 103.996 145.855 103.781 145.9 103.566C146.803 99.1535 147.993 94.7862 149.458 90.5164C150.252 88.194 151.13 85.8966 152.082 83.6417C153.32 80.7218 154.69 77.8469 156.19 75.037C157.92 71.7946 159.82 68.6398 161.877 65.5974C165.682 59.9676 170.049 54.6753 174.859 49.863C179.669 45.0532 184.963 40.6834 190.59 36.8835C193.633 34.8286 196.785 32.9262 200.03 31.1988C202.84 29.6938 205.712 28.3239 208.632 27.0889C210.892 26.134 213.184 25.2565 215.507 24.464C219.774 22.9991 224.141 21.8091 228.556 20.9042C228.771 20.8617 228.986 20.8167 229.204 20.7742C233.481 19.9267 237.833 19.3417 242.215 19.0267C244.795 18.8392 247.388 18.7443 249.982 18.7443C252.577 18.7443 255.17 18.8392 257.75 19.0267C258.45 23.3816 259.387 27.6564 260.549 31.8362C257.08 31.4437 253.555 31.2462 249.982 31.2462C246.41 31.2462 242.885 31.4462 239.416 31.8362C234.666 32.3687 230.023 33.2537 225.514 34.4711C219.999 35.9561 214.687 37.9335 209.625 40.3534C190.273 49.5955 174.589 65.2799 165.344 84.6341C162.924 89.6964 160.947 95.0112 159.462 100.526C158.245 105.033 157.36 109.676 156.827 114.425C156.435 117.893 156.237 121.42 156.237 124.992C156.237 128.565 156.437 132.092 156.827 135.56C152.647 134.397 148.373 133.46 144.018 132.76C143.828 130.177 143.735 127.585 143.735 124.992C143.735 122.4 143.828 119.808 144.018 117.225H144.023ZM118.574 118.573C120.699 118.685 122.839 118.743 124.994 118.743C127.149 118.743 129.286 118.685 131.413 118.573C131.301 120.698 131.243 122.838 131.243 124.992C131.243 127.147 131.301 129.285 131.413 131.412C129.289 131.3 127.149 131.242 124.994 131.242C122.839 131.242 120.701 131.3 118.574 131.412C118.687 129.287 118.744 127.147 118.744 124.992C118.744 122.838 118.687 120.7 118.574 118.573ZM109.86 170.141C114.812 169.208 119.867 168.741 124.994 168.741C130.121 168.741 135.176 169.208 140.128 170.141C145.625 171.173 150.992 172.778 156.195 174.948C156.335 175.006 156.475 175.063 156.615 175.123C161.427 177.155 166.069 179.675 170.411 182.61C174.716 185.52 178.764 188.86 182.443 192.54C186.123 196.22 189.463 200.269 192.37 204.572C195.305 208.914 197.825 213.556 199.86 218.369C199.92 218.506 199.977 218.644 200.035 218.784C202.202 223.986 203.807 229.356 204.845 234.853C205.775 239.805 206.242 244.86 206.242 249.987C206.242 255.115 205.775 260.17 204.845 265.122C199.695 267.239 194.725 269.709 189.97 272.502C192.415 265.449 193.743 257.872 193.743 249.987C193.743 242.103 192.415 234.526 189.97 227.473C183.093 207.617 167.369 191.892 147.513 185.015C140.458 182.568 132.883 181.24 124.996 181.24C117.109 181.24 109.535 182.568 102.48 185.015C105.272 180.26 107.742 175.29 109.862 170.141H109.86ZM73.1613 228.098C75.9937 221.401 80.051 215.384 85.2207 210.214C90.388 205.047 96.4052 200.987 103.102 198.157C110.027 195.225 117.394 193.742 124.991 193.742C132.588 193.742 139.955 195.227 146.88 198.157C153.577 200.989 159.595 205.047 164.762 210.214C169.932 215.384 173.989 221.401 176.821 228.098C179.754 235.023 181.236 242.388 181.236 249.987C181.236 257.587 179.751 264.952 176.821 271.877C173.989 278.574 169.932 284.591 164.762 289.761C159.595 294.928 153.577 298.988 146.88 301.818C139.955 304.75 132.588 306.233 124.991 306.233C117.394 306.233 110.027 304.748 103.102 301.818C96.4052 298.986 90.388 294.928 85.2207 289.761C80.051 284.591 75.9937 278.574 73.1613 271.877C70.229 264.952 68.7466 257.587 68.7466 249.987C68.7466 242.388 70.2315 235.023 73.1613 228.098ZM45.1452 234.856C50.295 232.738 55.2647 230.268 60.0195 227.476C57.5746 234.528 56.2472 242.105 56.2472 249.99C56.2472 257.875 57.5746 265.452 60.0195 272.504C66.8967 292.361 82.6209 308.085 102.477 314.962C109.532 317.41 117.107 318.737 124.994 318.737C132.881 318.737 140.455 317.41 147.51 314.962C144.718 319.717 142.248 324.687 140.128 329.837C135.176 330.769 130.121 331.237 124.994 331.237C119.867 331.237 114.812 330.769 109.86 329.837C104.362 328.804 98.995 327.199 93.7928 325.03C93.6528 324.972 93.5128 324.914 93.3728 324.854C88.5606 322.822 83.9183 320.302 79.576 317.367C75.2712 314.457 71.2239 311.118 67.5441 307.438C63.8643 303.758 60.5245 299.708 57.6171 295.406C54.6823 291.063 52.1624 286.421 50.1275 281.609C50.0675 281.471 50.01 281.334 49.9525 281.194C47.7851 275.991 46.1802 270.622 45.1427 265.124C44.2128 260.172 43.7453 255.117 43.7453 249.99C43.7453 244.863 44.2128 239.808 45.1427 234.856H45.1452ZM104.212 354.203C103.997 354.166 103.782 354.121 103.567 354.076C99.155 353.173 94.7878 351.983 90.518 350.518C88.1956 349.724 85.8982 348.846 83.6433 347.894C80.7235 346.656 77.8486 345.286 75.0388 343.786C71.7964 342.056 68.6416 340.156 65.5992 338.099C59.9695 334.294 54.6773 329.927 49.865 325.117C45.0552 320.307 40.6855 315.012 36.8857 309.385C34.8308 306.343 32.9284 303.19 31.2009 299.945C29.696 297.133 28.3261 294.261 27.0911 291.341C26.1362 289.081 25.2587 286.789 24.4663 284.466C23.0014 280.196 21.8114 275.829 20.9065 271.417C20.864 271.202 20.819 270.987 20.7765 270.769C19.929 266.492 19.344 262.14 19.029 257.757C18.8416 255.177 18.7466 252.585 18.7466 249.99C18.7466 247.395 18.8416 244.803 19.029 242.223C23.3838 241.523 27.6586 240.585 31.8384 239.423C31.4459 242.893 31.2484 246.418 31.2484 249.99C31.2484 253.562 31.4484 257.087 31.8384 260.557C32.3709 265.307 33.2558 269.949 34.4733 274.459C35.9582 279.974 37.9356 285.286 40.3555 290.348C49.5975 309.7 65.2817 325.384 84.6358 334.629C89.698 337.049 95.0127 339.026 100.527 340.511C105.035 341.729 109.677 342.614 114.427 343.146C117.894 343.539 121.421 343.736 124.994 343.736C128.566 343.736 132.093 343.536 135.561 343.146C134.398 347.326 133.461 351.601 132.761 355.956C130.178 356.146 127.586 356.238 124.994 356.238C122.401 356.238 119.809 356.146 117.227 355.956C112.844 355.641 108.49 355.056 104.212 354.206V354.203ZM124.994 381.235C122.841 381.235 120.701 381.292 118.574 381.405C118.687 379.28 118.744 377.14 118.744 374.985C118.744 372.83 118.687 370.693 118.574 368.565C120.699 368.678 122.839 368.735 124.994 368.735C127.149 368.735 129.286 368.678 131.413 368.565C131.301 370.69 131.243 372.83 131.243 374.985C131.243 377.14 131.301 379.277 131.413 381.405C129.289 381.292 127.149 381.235 124.994 381.235ZM144.025 382.752C143.835 380.17 143.743 377.577 143.743 374.985C143.743 372.393 143.835 369.8 144.025 367.218C144.34 362.836 144.925 358.481 145.775 354.203C145.813 353.988 145.858 353.773 145.903 353.558C146.805 349.146 147.995 344.779 149.46 340.509C150.255 338.186 151.132 335.889 152.085 333.634C153.322 330.714 154.692 327.839 156.192 325.03C157.922 321.787 159.822 318.632 161.879 315.59C165.684 309.96 170.051 304.668 174.861 299.855C179.671 295.046 184.966 290.676 190.593 286.876C193.635 284.821 196.788 282.919 200.032 281.191C202.842 279.686 205.715 278.316 208.635 277.081C210.894 276.126 213.187 275.249 215.509 274.457C219.777 272.992 224.144 271.802 228.559 270.897C228.774 270.854 228.989 270.809 229.206 270.767C233.483 269.919 237.836 269.334 242.218 269.019C244.798 268.832 247.39 268.737 249.985 268.737C252.58 268.737 255.172 268.832 257.752 269.019C258.452 273.374 259.39 277.649 260.552 281.829C257.082 281.436 253.557 281.239 249.985 281.239C246.413 281.239 242.888 281.439 239.418 281.829C234.668 282.361 230.026 283.246 225.516 284.464C220.001 285.949 214.689 287.926 209.627 290.346C190.275 299.588 174.591 315.272 165.347 334.627C162.927 339.689 160.949 345.004 159.465 350.518C158.247 355.026 157.362 359.668 156.83 364.418C156.437 367.885 156.24 371.413 156.24 374.985C156.24 378.557 156.44 382.085 156.83 385.552C152.65 384.39 148.375 383.452 144.02 382.752H144.025ZM170.141 390.119C169.209 385.167 168.742 380.112 168.742 374.985C168.742 369.858 169.209 364.803 170.141 359.851C171.174 354.353 172.779 348.986 174.949 343.784C175.006 343.644 175.064 343.504 175.124 343.364C177.156 338.551 179.676 333.909 182.611 329.567C185.518 325.262 188.861 321.215 192.54 317.535C196.22 313.855 200.27 310.515 204.572 307.608C208.915 304.673 213.557 302.153 218.369 300.118C218.507 300.058 218.644 300 218.784 299.943C223.986 297.776 229.356 296.171 234.853 295.133C239.806 294.203 244.86 293.736 249.987 293.736C255.115 293.736 260.169 294.203 265.122 295.133C267.239 300.283 269.709 305.253 272.501 310.008C265.449 307.563 257.872 306.235 249.987 306.235C242.103 306.235 234.526 307.563 227.474 310.008C207.617 316.885 191.893 332.609 185.016 352.466C182.568 359.521 181.241 367.095 181.241 374.982C181.241 382.87 182.568 390.444 185.016 397.499C180.261 394.707 175.291 392.237 170.141 390.117V390.119ZM210.214 414.758C205.047 409.591 200.987 403.574 198.158 396.877C195.225 389.952 193.743 382.585 193.743 374.988C193.743 367.39 195.228 360.023 198.158 353.098C200.99 346.401 205.047 340.384 210.214 335.217C215.384 330.047 221.401 325.989 228.099 323.157C235.023 320.225 242.388 318.742 249.987 318.742C257.587 318.742 264.952 320.227 271.876 323.157C278.574 325.989 284.591 330.047 289.761 335.217C294.928 340.384 298.988 346.401 301.817 353.098C304.75 360.023 306.232 367.39 306.232 374.988C306.232 382.585 304.747 389.952 301.817 396.877C298.985 403.574 294.928 409.591 289.761 414.758C284.591 419.928 278.574 423.986 271.876 426.818C264.952 429.75 257.587 431.233 249.987 431.233C242.388 431.233 235.023 429.748 228.099 426.818C221.401 423.986 215.384 419.928 210.214 414.758ZM227.474 439.962C234.526 442.407 242.103 443.735 249.987 443.735C257.872 443.735 265.449 442.407 272.501 439.962C292.358 433.085 308.082 417.361 314.959 397.504C317.407 390.449 318.734 382.875 318.734 374.988C318.734 367.1 317.407 359.526 314.959 352.471C319.714 355.263 324.684 357.733 329.834 359.853C330.766 364.805 331.233 369.86 331.233 374.988C331.233 380.115 330.766 385.17 329.834 390.122C328.801 395.619 327.196 400.989 325.026 406.189C324.969 406.329 324.911 406.469 324.851 406.609C322.819 411.421 320.299 416.063 317.364 420.406C314.454 424.71 311.114 428.758 307.435 432.438C303.755 436.118 299.705 439.457 295.403 442.365C291.06 445.3 286.418 447.82 281.606 449.855C281.468 449.915 281.331 449.972 281.191 450.029C275.989 452.197 270.619 453.802 265.122 454.839C260.169 455.769 255.115 456.237 249.987 456.237C244.86 456.237 239.806 455.769 234.853 454.839C232.736 449.69 230.266 444.72 227.474 439.965V439.962ZM355.95 382.755C355.635 387.137 355.05 391.492 354.2 395.769C354.162 395.984 354.117 396.199 354.072 396.414C353.17 400.826 351.98 405.194 350.515 409.464C349.72 411.786 348.843 414.083 347.89 416.338C346.653 419.258 345.283 422.133 343.783 424.943C342.053 428.185 340.153 431.34 338.096 434.383C334.291 440.012 329.924 445.305 325.114 450.117C320.304 454.927 315.009 459.297 309.382 463.096C306.34 465.151 303.187 467.054 299.942 468.781C297.133 470.286 294.26 471.656 291.34 472.891C289.081 473.846 286.788 474.724 284.466 475.516C280.198 476.981 275.831 478.171 271.416 479.076C271.201 479.118 270.986 479.163 270.769 479.206C266.492 480.053 262.139 480.638 257.757 480.953C255.177 481.141 252.585 481.236 249.99 481.236C247.395 481.236 244.803 481.141 242.223 480.953C241.523 476.598 240.585 472.324 239.423 468.144C242.893 468.536 246.418 468.734 249.99 468.734C253.562 468.734 257.087 468.534 260.557 468.144C265.307 467.611 269.949 466.726 274.459 465.509C279.974 464.024 285.286 462.047 290.348 459.627C309.7 450.384 325.384 434.7 334.628 415.346C337.048 410.284 339.026 404.969 340.51 399.454C341.728 394.947 342.613 390.304 343.145 385.555C343.538 382.087 343.735 378.56 343.735 374.988C343.735 371.415 343.535 367.888 343.145 364.42C347.325 365.583 351.6 366.52 355.955 367.22C356.145 369.803 356.237 372.395 356.237 374.988C356.237 377.58 356.145 380.172 355.955 382.755H355.95ZM381.398 381.407C379.274 381.295 377.134 381.237 374.979 381.237C372.824 381.237 370.686 381.295 368.559 381.407C368.672 379.282 368.729 377.142 368.729 374.988C368.729 372.833 368.672 370.695 368.559 368.568C370.684 368.68 372.824 368.738 374.979 368.738C377.134 368.738 379.271 368.68 381.398 368.568C381.286 370.693 381.228 372.833 381.228 374.988C381.228 377.142 381.286 379.28 381.398 381.407ZM390.113 329.839C385.161 330.772 380.106 331.239 374.979 331.239C369.852 331.239 364.797 330.772 359.844 329.839C354.347 328.807 348.98 327.202 343.778 325.032C343.638 324.975 343.498 324.917 343.358 324.857C338.546 322.825 333.903 320.305 329.561 317.37C325.256 314.46 321.209 311.12 317.529 307.44C313.849 303.76 310.509 299.711 307.602 295.408C304.667 291.066 302.147 286.424 300.112 281.611C300.052 281.474 299.995 281.336 299.938 281.196C297.77 275.994 296.165 270.624 295.128 265.127C294.198 260.175 293.73 255.12 293.73 249.993C293.73 244.865 294.198 239.81 295.128 234.858C300.277 232.741 305.247 230.271 310.002 227.478C307.557 234.531 306.23 242.108 306.23 249.993C306.23 257.877 307.557 265.454 310.002 272.507C316.879 292.363 332.603 308.088 352.46 314.965C359.515 317.412 367.089 318.74 374.976 318.74C382.863 318.74 390.438 317.412 397.493 314.965C394.7 319.72 392.23 324.69 390.11 329.839H390.113ZM426.811 271.882C423.979 278.579 419.921 284.596 414.752 289.766C409.585 294.933 403.567 298.993 396.87 301.823C389.946 304.755 382.578 306.238 374.981 306.238C367.384 306.238 360.017 304.753 353.092 301.823C346.395 298.991 340.378 294.933 335.211 289.766C330.041 284.596 325.984 278.579 323.151 271.882C320.219 264.957 318.737 257.592 318.737 249.993C318.737 242.393 320.221 235.028 323.151 228.103C325.984 221.406 330.041 215.389 335.211 210.219C340.378 205.052 346.395 200.992 353.092 198.162C360.017 195.23 367.384 193.747 374.981 193.747C382.578 193.747 389.946 195.232 396.87 198.162C403.567 200.994 409.585 205.052 414.752 210.219C419.921 215.389 423.979 221.406 426.811 228.103C429.743 235.028 431.226 242.393 431.226 249.993C431.226 257.592 429.741 264.957 426.811 271.882ZM454.827 265.124C449.678 267.242 444.708 269.712 439.953 272.504C442.398 265.452 443.725 257.875 443.725 249.99C443.725 242.105 442.398 234.528 439.953 227.476C433.076 207.619 417.352 191.895 397.495 185.018C390.44 182.57 382.866 181.243 374.979 181.243C367.092 181.243 359.517 182.57 352.462 185.018C355.255 180.263 357.725 175.293 359.844 170.143C364.797 169.211 369.852 168.743 374.979 168.743C380.106 168.743 385.161 169.211 390.113 170.143C395.61 171.176 400.977 172.781 406.18 174.951C406.32 175.008 406.46 175.066 406.6 175.126C411.412 177.158 416.054 179.678 420.396 182.613C424.701 185.523 428.749 188.862 432.428 192.542C436.108 196.222 439.448 200.272 442.355 204.574C445.29 208.917 447.81 213.559 449.845 218.371C449.905 218.509 449.963 218.646 450.02 218.786C452.187 223.989 453.792 229.358 454.83 234.856C455.76 239.808 456.227 244.863 456.227 249.99C456.227 255.117 455.76 260.172 454.83 265.124H454.827ZM395.76 145.777C395.975 145.814 396.19 145.859 396.405 145.904C400.817 146.807 405.185 147.997 409.455 149.462C411.777 150.256 414.074 151.134 416.329 152.086C419.249 153.324 422.124 154.694 424.934 156.194C428.176 157.924 431.331 159.824 434.373 161.881C440.003 165.686 445.295 170.053 450.107 174.863C454.917 179.673 459.287 184.968 463.087 190.595C465.142 193.637 467.044 196.79 468.772 200.034C470.276 202.847 471.646 205.719 472.881 208.639C473.836 210.899 474.714 213.191 475.506 215.514C476.971 219.784 478.161 224.151 479.066 228.563C479.109 228.778 479.154 228.993 479.196 229.211C480.043 233.488 480.628 237.84 480.943 242.223C481.131 244.803 481.226 247.395 481.226 249.99C481.226 252.585 481.131 255.177 480.943 257.757C476.589 258.457 472.314 259.395 468.134 260.557C468.527 257.087 468.724 253.562 468.724 249.99C468.724 246.418 468.524 242.893 468.134 239.423C467.602 234.673 466.717 230.031 465.499 225.521C464.014 220.006 462.037 214.694 459.617 209.632C450.375 190.28 434.691 174.596 415.337 165.351C410.274 162.931 404.96 160.954 399.445 159.469C394.938 158.251 390.295 157.366 385.546 156.834C382.078 156.441 378.551 156.244 374.979 156.244C371.406 156.244 367.879 156.444 364.412 156.834C365.574 152.654 366.512 148.379 367.212 144.024C369.794 143.834 372.386 143.742 374.979 143.742C377.571 143.742 380.164 143.834 382.746 144.024C387.128 144.339 391.483 144.924 395.76 145.774V145.777ZM381.398 131.415C379.274 131.302 377.134 131.245 374.979 131.245C372.824 131.245 370.686 131.302 368.559 131.415C368.672 129.29 368.729 127.15 368.729 124.995C368.729 122.84 368.672 120.703 368.559 118.575C370.684 118.688 372.824 118.745 374.979 118.745C377.134 118.745 379.271 118.688 381.398 118.575C381.286 120.7 381.228 122.84 381.228 124.995C381.228 127.15 381.286 129.287 381.398 131.415Z" fill="#FCEBCF"/>
<path d="M456.227 124.995C456.227 149.157 475.814 168.743 499.975 168.743V156.244C491.628 156.244 483.781 152.994 477.879 147.089C471.977 141.187 468.724 133.34 468.724 124.993C468.724 116.645 471.974 108.798 477.879 102.896C483.781 96.9936 491.628 93.7413 499.975 93.7413V81.2418C475.814 81.2418 456.227 100.828 456.227 124.99V124.995Z" fill="#FCEBCF"/>
<path d="M374.981 231.241C364.627 231.241 356.232 239.635 356.232 249.99C356.232 260.345 364.627 268.739 374.981 268.739C385.336 268.739 393.73 260.345 393.73 249.99C393.73 239.635 385.336 231.241 374.981 231.241ZM374.981 256.237C371.536 256.237 368.732 253.435 368.732 249.987C368.732 246.54 371.536 243.738 374.981 243.738C378.426 243.738 381.231 246.54 381.231 249.987C381.231 253.435 378.426 256.237 374.981 256.237Z" fill="#FCEBCF"/>
<path d="M374.981 206.242C350.82 206.242 331.234 225.829 331.234 249.99C331.234 274.152 350.82 293.738 374.981 293.738C399.143 293.738 418.729 274.152 418.729 249.99C418.729 225.829 399.143 206.242 374.981 206.242ZM397.078 272.087C391.176 277.989 383.328 281.241 374.981 281.241C366.634 281.241 358.787 277.991 352.885 272.087C346.983 266.184 343.73 258.337 343.73 249.99C343.73 241.643 346.98 233.796 352.885 227.893C358.787 221.991 366.634 218.739 374.981 218.739C383.328 218.739 391.176 221.989 397.078 227.893C402.98 233.796 406.232 241.643 406.232 249.99C406.232 258.337 402.982 266.184 397.078 272.087Z" fill="#FCEBCF"/>
<path d="M18.7491 124.995C18.7491 114.64 10.3545 106.246 0 106.246V118.745C3.44733 118.745 6.24969 121.55 6.24969 124.995C6.24969 128.44 3.44733 131.245 0 131.245V143.744C10.3545 143.744 18.7491 135.35 18.7491 124.995Z" fill="#FCEBCF"/>
<path d="M43.7478 124.995C43.7478 100.834 24.1613 81.2468 0 81.2468V93.7463C8.34708 93.7463 16.1942 96.9962 22.0964 102.901C27.9986 108.803 31.2509 116.65 31.2509 124.998C31.2509 133.345 28.0011 141.192 22.0964 147.094C16.1942 152.996 8.34708 156.249 0 156.249V168.748C24.1613 168.748 43.7478 149.162 43.7478 125V124.995Z" fill="#FCEBCF"/>
<path d="M124.994 268.739C135.348 268.739 143.743 260.345 143.743 249.99C143.743 239.635 135.348 231.241 124.994 231.241C114.639 231.241 106.245 239.635 106.245 249.99C106.245 260.345 114.639 268.739 124.994 268.739ZM124.994 243.743C128.439 243.743 131.244 246.545 131.244 249.992C131.244 253.44 128.439 256.242 124.994 256.242C121.549 256.242 118.744 253.44 118.744 249.992C118.744 246.545 121.549 243.743 124.994 243.743Z" fill="#FCEBCF"/>
<path d="M124.994 293.738C149.155 293.738 168.742 274.152 168.742 249.99C168.742 225.829 149.155 206.242 124.994 206.242C100.833 206.242 81.2463 225.829 81.2463 249.99C81.2463 274.152 100.833 293.738 124.994 293.738ZM102.898 227.893C108.8 221.991 116.647 218.739 124.994 218.739C133.341 218.739 141.188 221.989 147.09 227.893C152.993 233.796 156.245 241.643 156.245 249.99C156.245 258.337 152.995 266.184 147.09 272.087C141.188 277.989 133.341 281.241 124.994 281.241C116.647 281.241 108.8 277.991 102.898 272.087C96.9955 266.184 93.7431 258.337 93.7431 249.99C93.7431 241.643 96.993 233.796 102.898 227.893Z" fill="#FCEBCF"/>
<path d="M481.226 374.985C481.226 385.34 489.62 393.734 499.975 393.734V381.235C496.527 381.235 493.725 378.43 493.725 374.985C493.725 371.54 496.527 368.735 499.975 368.735V356.236C489.62 356.236 481.226 364.631 481.226 374.985Z" fill="#FCEBCF"/>
<path d="M456.227 374.985C456.227 399.147 475.814 418.733 499.975 418.733V406.234C491.628 406.234 483.781 402.984 477.879 397.079C471.977 391.177 468.724 383.33 468.724 374.983C468.724 366.635 471.974 358.788 477.879 352.886C483.781 346.984 491.628 343.731 499.975 343.731V331.232C475.814 331.232 456.227 350.819 456.227 374.98V374.985Z" fill="#FCEBCF"/>
<path d="M374.981 481.231C364.627 481.231 356.232 489.625 356.232 499.98H368.732C368.732 496.532 371.536 493.73 374.981 493.73C378.426 493.73 381.231 496.532 381.231 499.98H393.73C393.73 489.625 385.336 481.231 374.981 481.231Z" fill="#FCEBCF"/>
<path d="M374.981 456.232C350.82 456.232 331.234 475.819 331.234 499.98H343.733C343.733 491.633 346.983 483.786 352.887 477.883C358.79 471.981 366.637 468.729 374.984 468.729C383.331 468.729 391.178 471.979 397.08 477.883C402.982 483.786 406.235 491.633 406.235 499.98H418.734C418.734 475.819 399.148 456.232 374.986 456.232H374.981Z" fill="#FCEBCF"/>
<path d="M268.737 374.985C268.737 364.631 260.342 356.236 249.988 356.236C239.634 356.236 231.239 364.631 231.239 374.985C231.239 385.34 239.634 393.734 249.988 393.734C260.342 393.734 268.737 385.34 268.737 374.985ZM243.741 374.985C243.741 371.54 246.543 368.735 249.991 368.735C253.438 368.735 256.24 371.54 256.24 374.985C256.24 378.43 253.438 381.235 249.991 381.235C246.543 381.235 243.741 378.43 243.741 374.985Z" fill="#FCEBCF"/>
<path d="M293.736 374.985C293.736 350.824 274.149 331.237 249.988 331.237C225.827 331.237 206.24 350.824 206.24 374.985C206.24 399.147 225.827 418.733 249.988 418.733C274.149 418.733 293.736 399.147 293.736 374.985ZM227.891 397.082C221.989 391.179 218.737 383.332 218.737 374.985C218.737 366.638 221.987 358.791 227.891 352.889C233.794 346.986 241.641 343.734 249.988 343.734C258.335 343.734 266.182 346.984 272.084 352.889C277.986 358.791 281.239 366.638 281.239 374.985C281.239 383.332 277.989 391.179 272.084 397.082C266.182 402.984 258.335 406.236 249.988 406.236C241.641 406.236 233.794 402.987 227.891 397.082Z" fill="#FCEBCF"/>
<path d="M124.994 481.231C114.639 481.231 106.245 489.625 106.245 499.98H118.744C118.744 496.532 121.549 493.73 124.994 493.73C128.439 493.73 131.244 496.532 131.244 499.98H143.743C143.743 489.625 135.348 481.231 124.994 481.231Z" fill="#FCEBCF"/>
<path d="M124.994 456.232C100.833 456.232 81.2463 475.819 81.2463 499.98H93.7457C93.7457 491.633 96.9955 483.786 102.9 477.883C108.802 471.981 116.65 468.729 124.997 468.729C133.344 468.729 141.191 471.979 147.093 477.883C152.995 483.786 156.248 491.633 156.248 499.98H168.747C168.747 475.819 149.16 456.232 124.999 456.232H124.994Z" fill="#FCEBCF"/>
<path d="M18.7491 374.985C18.7491 364.631 10.3545 356.236 0 356.236V368.735C3.44733 368.735 6.24969 371.54 6.24969 374.985C6.24969 378.43 3.44733 381.235 0 381.235V393.734C10.3545 393.734 18.7491 385.34 18.7491 374.985Z" fill="#FCEBCF"/>
<path d="M43.7478 374.985C43.7478 350.824 24.1613 331.237 0 331.237V343.736C8.34708 343.736 16.1942 346.986 22.0964 352.891C27.9986 358.793 31.2509 366.64 31.2509 374.988C31.2509 383.335 28.0011 391.182 22.0964 397.084C16.1942 402.987 8.34708 406.239 0 406.239V418.738C24.1613 418.738 43.7478 399.152 43.7478 374.99V374.985Z" fill="#FCEBCF"/>
</g>
</svg>
